<svg preserveAspectRatio="none" width="100%" height="100%" overflow="visible" style="display: block;" viewBox="0 0 20.0022 20.0005" fill="none" xmlns="http://www.w3.org/2000/svg">
<path id="Union" d="M17.6817 0.397628C18.212 -0.132596 19.0723 -0.132489 19.6026 0.397628C20.1329 0.927943 20.1329 1.7882 19.6026 2.31853L11.921 9.99919L19.6046 17.6828C20.1348 18.2131 20.1347 19.0724 19.6046 19.6027C19.0742 20.133 18.214 20.133 17.6837 19.6027L10.0011 11.9201L2.31843 19.6027C1.78811 20.133 0.927864 20.133 0.397536 19.6027C-0.132538 19.0724 -0.132486 18.2131 0.397536 17.6828L8.08015 9.99919L0.399489 2.31853C-0.130511 1.78827 -0.130477 0.928876 0.399489 0.398604C0.929818 -0.131723 1.79006 -0.131723 2.32039 0.398604L10.0001 8.07829L17.6817 0.397628Z" fill="var(--fill-0, #181A1E)"/>
</svg>
