<svg preserveAspectRatio="none" width="100%" height="100%" overflow="visible" style="display: block;" viewBox="0 0 38.4168 37.3458" fill="none" xmlns="http://www.w3.org/2000/svg">
<g id="Group 1261158210">
<path id="Vector 63" d="M11.4597 13.0265V22.2721H16.2705L19.7693 24.0215H26.3295C28.0789 24.0215 28.8078 25.1878 28.9535 25.7709L32.4523 22.7095V13.0265H35.9511L21.956 0.780762L7.96094 13.0265H11.4597Z" fill="var(--fill-0, #88A6FF)"/>
<path id="Union" d="M33.1777 20.5548C34.376 19.3571 36.3192 19.3571 37.5175 20.5548L37.6269 20.6691C38.6802 21.8347 38.6799 23.6146 37.6269 24.7804L37.5175 24.8956L30.7373 31.6759L30.7285 31.6671C30.6585 31.7303 30.5812 31.7875 30.4951 31.8351L20.8105 37.1827C20.6147 37.2908 20.4021 37.3393 20.1933 37.337C20.1478 37.3421 20.1016 37.3458 20.0547 37.3458H7.55466C6.86446 37.3458 6.30492 36.7859 6.30466 36.0958C6.30466 35.4055 6.8643 34.8458 7.55466 34.8458H19.8681L29.1592 29.7159L35.75 23.1271C35.9716 22.905 35.9718 22.5444 35.75 22.3224C35.5278 22.1009 35.1672 22.1015 34.9453 22.3234L29.1152 28.1515C28.5835 28.8106 27.786 29.2464 26.8847 29.2921L26.7275 29.296H16.4619V29.2921C15.8001 29.26 15.2734 28.7147 15.2734 28.045C15.2736 27.3755 15.8002 26.8301 16.4619 26.798V26.796H16.5049C16.511 26.7959 16.5172 26.795 16.5234 26.795C16.5296 26.795 16.5358 26.7959 16.542 26.796H26.7275C26.9157 26.7958 27.0811 26.7028 27.1845 26.5616L27.1777 26.5548L27.2129 26.5187C27.2644 26.433 27.2959 26.3338 27.2959 26.2267C27.2956 25.913 27.0412 25.6587 26.7275 25.6583H19.5674V25.6495C19.3245 25.6541 19.0778 25.5887 18.8593 25.4454L16.1543 23.671C16.1376 23.6601 16.1224 23.6474 16.1064 23.6359L16.0957 23.6573C16.0341 23.6295 15.9664 23.6124 15.8945 23.6124H11.042C10.6515 23.6125 10.281 23.6983 9.94821 23.8517L2.02048 30.0548C1.4768 30.4802 0.691053 30.3846 0.265596 29.8409C-0.159657 29.2973 -0.0640845 28.5115 0.479463 28.0861L8.42966 21.8653C8.49932 21.8109 8.57305 21.7652 8.64938 21.7277L8.6406 21.7111C9.35664 21.3295 10.174 21.1125 11.042 21.1124H15.8945C16.3836 21.1124 16.8443 21.2323 17.2519 21.4405L17.249 21.4454C17.3443 21.4785 17.4372 21.5233 17.5254 21.5812L19.9297 23.1583H26.7275L26.8847 23.1622C27.8655 23.2119 28.723 23.7238 29.249 24.4825L33.1777 20.5548Z" fill="var(--fill-0, #181A1E)"/>
<path id="Union_2" d="M22.0128 0.00192198C22.3224 -0.0135748 22.6385 0.0852012 22.8917 0.30368L35.9533 11.5703C36.4759 12.0211 36.5339 12.8102 36.0831 13.333C35.8988 13.5467 35.6576 13.6809 35.4015 13.7363C35.3086 13.7583 35.2121 13.7724 35.1124 13.7724H32.8126V21.0966C32.8126 21.787 32.253 22.3476 31.5626 22.3476C30.8724 22.3476 30.3129 21.7878 30.3126 21.0976V12.5976C30.3126 12.3241 30.4009 12.071 30.5499 11.8652C30.7703 11.5097 31.1634 11.2725 31.6124 11.2724H31.7804L22.0089 2.84274L12.2355 11.2724H12.3829C12.9151 11.2724 13.3686 11.6055 13.549 12.0742C13.6221 12.2331 13.6642 12.4093 13.6642 12.5957V22.0957C13.6642 22.786 13.1045 23.3457 12.4142 23.3457C11.7238 23.3457 11.1642 22.786 11.1642 22.0957V13.7724H8.88294C8.25576 13.7723 7.73726 13.3102 7.64759 12.708C7.58387 12.2961 7.72676 11.8616 8.06556 11.5693L21.1281 0.302703C21.3831 0.0827948 21.7012 -0.0152773 22.0128 0.00192198Z" fill="var(--fill-0, #181A1E)"/>
</g>
</svg>
