<svg preserveAspectRatio="none" width="100%" height="100%" overflow="visible" style="display: block;" viewBox="0 0 40.75 39.8048" fill="none" xmlns="http://www.w3.org/2000/svg">
<g id="Group 1261158211">
<rect id="Rectangle 39591328" x="6" y="24.9053" width="29" height="13" fill="var(--fill-0, #88A6FF)"/>
<path id="Union" d="M20.3984 0.00111122C20.6921 -0.00210275 20.9886 0.0969288 21.2285 0.303846L40.3154 16.7667C40.6055 17.017 40.7517 17.3714 40.748 17.7267C40.7482 17.7358 40.75 17.7449 40.75 17.754C40.75 18.4444 40.1904 19.004 39.5 19.004H36.25V38.5197C36.2499 39.1338 35.8066 39.6431 35.2227 39.7482C35.1049 39.7849 34.9795 39.8048 34.8496 39.8048H5.84961C5.68444 39.8048 5.52713 39.7722 5.38281 39.714C4.87184 39.5572 4.5002 39.082 4.5 38.5197V19.004H1.25C0.559724 19.004 0.000129894 18.4443 0 17.754C-4.82398e-09 17.6437 0.0151394 17.5366 0.0419922 17.4347C0.0991216 17.1837 0.233552 16.9479 0.443359 16.7667L19.5303 0.301892C19.7807 0.0860338 20.0923 -0.0116946 20.3984 0.00111122ZM4.5752 16.504H5.75C6.44036 16.504 7 17.0637 7 17.754V37.3048H33.75V17.754C33.75 17.7108 33.7526 17.6682 33.7568 17.6261C33.7654 17.542 33.7822 17.4603 33.8066 17.382C33.965 16.8734 34.4393 16.504 35 16.504H36.1836L20.3779 2.8722L4.5752 16.504Z" fill="var(--fill-0, #181A1E)"/>
<path id="Union_2" d="M13.1309 19.9936C13.7727 19.7394 14.4987 20.054 14.7529 20.6958L16.9473 26.2338L19.1416 20.6958C19.3434 20.1869 19.8416 19.8854 20.3594 19.9086C20.8702 19.8937 21.3585 20.1941 21.5576 20.6967L23.748 26.2251L25.9385 20.6977C26.1927 20.0559 26.9187 19.7414 27.5605 19.9956C28.2024 20.2498 28.517 20.9768 28.2627 21.6186L27.7549 22.8999H28.6699C29.3602 22.8999 29.9199 23.4596 29.9199 24.1499C29.9198 24.8401 29.3601 25.3998 28.6699 25.3999H26.7646L24.9512 29.976C24.7504 30.4827 24.2556 30.7833 23.7402 30.7631C23.2304 30.7768 22.7437 30.4768 22.5449 29.9751L20.3486 24.434L18.1543 29.9751C17.954 30.4802 17.4611 30.7807 16.9473 30.7622C16.4332 30.7809 15.9395 30.4796 15.7393 29.9741L13.9277 25.3999H12C11.3099 25.3997 10.7502 24.84 10.75 24.1499C10.75 23.4596 11.3097 22.9 12 22.8999H12.9375L12.4287 21.6167C12.1745 20.9748 12.489 20.2479 13.1309 19.9936Z" fill="var(--fill-0, #181A1E)"/>
</g>
</svg>
